/* XPM */
static char *_cc829a18c514632c070a2b522c7b15dhdA4eWIkkIITt6zr[] = {
/* columns rows colors chars-per-pixel */
"32 32 142 2 ",
"   c #221E38",
".  c #281F38",
"X  c #2D2036",
"o  c #24223A",
"O  c #2B243C",
"+  c #2C293F",
"@  c #35243A",
"#  c #3C263A",
"$  c #3E2D3E",
"%  c #28303F",
"&  c #3F323E",
"*  c #452739",
"=  c #48273A",
"-  c #442A3B",
";  c #492A3C",
":  c #42323F",
">  c #2C2A41",
",  c #312C43",
"<  c #2A3741",
"1  c #2F3D44",
"2  c #343146",
"3  c #3A3E46",
"4  c #363449",
"5  c #3A374A",
"6  c #3D3B4C",
"7  c #4D2E41",
"8  c #453241",
"9  c #4C3443",
"0  c #4D3C45",
"q  c #463449",
"w  c #403A48",
"e  c #533F47",
"r  c #523649",
"t  c #553F4E",
"y  c #523E50",
"u  c #2E4145",
"i  c #344346",
"p  c #3A4146",
"a  c #324949",
"s  c #3E4F53",
"d  c #44434B",
"f  c #48424B",
"g  c #434B4C",
"h  c #4C484B",
"j  c #54434B",
"k  c #544A4E",
"l  c #59484F",
"z  c #48514F",
"x  c #454452",
"c  c #434951",
"v  c #4C4E53",
"b  c #534556",
"n  c #5C4455",
"m  c #544E56",
"M  c #5D4C54",
"N  c #534D5A",
"B  c #5D4D5C",
"V  c #4D5152",
"C  c #465659",
"Z  c #4C5A5E",
"A  c #545454",
"S  c #5B5354",
"D  c #5B5857",
"F  c #52535B",
"G  c #5F5758",
"H  c #5D5A5B",
"J  c #614758",
"K  c #62555D",
"L  c #645E5D",
"P  c #66605F",
"I  c #5A4F65",
"U  c #575560",
"Y  c #5A5164",
"T  c #565964",
"R  c #5F5E66",
"E  c #5C5C68",
"W  c #665562",
"Q  c #6A5565",
"!  c #615E67",
"~  c #6D5768",
"^  c #675D69",
"/  c #6A5B6A",
"(  c #715E6E",
")  c #665D71",
"_  c #6B5E71",
"`  c #5D656C",
"'  c #596770",
"]  c #676160",
"[  c #6A6565",
"{  c #6C6867",
"}  c #63626A",
"|  c #6A646B",
" . c #6E6C6C",
".. c #716E6E",
"X. c #6B6172",
"o. c #626B72",
"O. c #6C6C76",
"+. c #756272",
"@. c #736A74",
"#. c #7C6E7C",
"$. c #62767D",
"%. c #6D747C",
"&. c #767676",
"*. c #7A7577",
"=. c #7A757B",
"-. c #7D7A7C",
";. c #816E7E",
":. c #807C7F",
">. c #6D7F87",
",. c #777580",
"<. c #7D7482",
"1. c #747986",
"2. c #837280",
"3. c #817D82",
"4. c #887886",
"5. c #897F8A",
"6. c #7D8285",
"7. c #7F878B",
"8. c #838086",
"9. c #80868A",
"0. c #8B828B",
"q. c #818B8F",
"w. c #8F8590",
"e. c #848E94",
"r. c #8B8B94",
"t. c #918691",
"y. c #938693",
"u. c #938794",
"i. c #948794",
"p. c #948795",
"a. c #968897",
"s. c #978897",
"d. c #968E9C",
"f. c #849196",
"g. c #87969D",
"h. c #93919D",
"j. c #8A9AA2",
"k. c #8EA3AD",
"l. c #95A2AF",
"z. c #91A7B1",
"x. c #93A9B6",
"c. c #94AEBA",
/* pixels */
"a.u.| 2 7.l.p.a.a.a.a.a.a.-.+ &.c.s.a.a.s.s.s.s.s.8.6 ! k.d.a.a.",
"&.*.4.n k.&.&.&.&.&.&.&.&.w.; x.&.&.&.&.&.&.&.&.&.0.n e.6.=.&.&.",
"&.&.{ y 0.&.&.&.&.&.&.&.&...: a.&.*.&.&.&.&.&.&.&.&.j #.<.&.&.&.",
"&.&.D C w.&.&.&.&.&.&.&.&.L a s.&.&.&.&.&.&.&.&.&.[ g =.-.&.&.&.",
"&.&.D v 0.&.&.&.&.&.&.&.[ L p y.&.&.&.&.&.&.=.&.&.[ 0 <.-.&.&.&.",
" .{ j q 0.-.&... . . .P { M # 5.8.&.&.&...&.{ ....K 3 @.8.*.&.&.",
"V j @ > U | F f d f h V k #   F +.K K F h m j l k :   x | W F F ",
"$.Q I I W ^ T 4 O 6 ` o.~ I I I M ~ W 6 + F X.~ ^ E Y Y Q J o v ",
"z.u.p.u.y.u.0.N , } j.h.u.u.u.y.&.y.y.| 6 q.z.h.p.p.i.i.y.-.+ &.",
"9.3.3.3.3.3.5.W q 1.f.3.:.:.:...L 3.3.=.b g.9.<.6.<.8.:.:.0.- &.",
"&.&.&.&.&.&.=.K r 2.8.&.&.&.[ 4...&.&.@.n r.&.&.&.&.&.&.&.<.; &.",
"&.&.&.&.&.&...A c ,.3.&.&.[ 4.:.&.&.&.H F 0.&.&.&.&.&.&.&.[ p &.",
"&.&.&.&.&.&...V s ,.3.&.&.&.-.&.&.&.&.M n 0.&.&.&.&.&.&.&.P a &.",
"&.&.&.&.&.&.{ V s ,.8.&.&.&.&.&.&.&.&.M n 0...[ { &.&.&.&.P a &.",
"a.&.] ..L L l @ > R 0.<.&.&.P L L L S * 5 3.0.&.{ L L L P ; o &.",
"; i # o o O @   o   # ; * o     * - u     @ & i a % o o # X   o ",
"s.p.y.[ 5 q.z.s.s.s.s.s.s.=.+ &.c.p.s.s.a.a.a.a.a.8.6 ! k.d.a.a.",
"&.&.*.;.B j.&.&.&.&.&.&.&.0.7 x.&.&.&.&.&.&.&.&.&.0.J q.6.&.&.&.",
"&.&.&./ n 5.&.&.&.&.&.&.&.&.8 p.&.&.&.&.&.&.&.&.&.&.j ;.-.=.&.&.",
"&.&.&.S n 0.=.&.&.&.&.&.&.L p p.&.&.&.&.&.&.&.&.&.[ 0 #.-.&.&.&.",
"&.&.&.A Z 0.&.&.&.&.&.&.&.P : u.&.&.&.&.&.&.&.&.&.[ g <.-.&.&.&.",
"&.&.&.D F 0.&.&.&.&.&.&.&.P a a.&.&.&.&.&.&.&.&.&.[ f <.-...&.&.",
" . .{ j t 8.&.&. . .&. . .S 1 0.3.&.&.&... . . . .L : @.3.{  .&.",
"L ] G # 5 5.8. .] L ] L P 9 O &.u.&.&.&.] P P P P j @ ^ 0.&.P L ",
"j j 9 O + N B w 5 w d z j @   x } M M x 6 d z z h $ . 5 ` B e w ",
"+.( ( H ) _ / 6 > x $.%.+.) ) ) %.+./ x + ` >.%.O.X.) ) O.( +.) ",
"3.:.-.{ 3.3.5.W q 1.f.3.3.8.3.3.3.3.4.#.b g.q.8.:.3.3.3.3.3.3.3.",
"&.&.&...{ &.=.W r <.3.&.&.&.&.&.&.&.&...n r.&.&.&.&.&.&.&.&.&.&.",
"&.&.&.&.&.&. .V s ,.3.&.&.&.&.&.&.&.&.D F 0.&.&.&.&.&.&.&.&.&.&.",
"&.&.&.&.&.&.{ V s =.3.&.&.&.&.&.&.&.&.D Z 0.&.&.&.&.&.&.&.&.&.&.",
"&.&.] &.L L M @ > } 0.-.&.&.P &.L L S # 5 3.0.-.&.&.[  .[ L L L ",
"* a u 3 * & <     o # ; i a i a = - u   o X : a a a a a a - i o "
};
